<svg width="1440" height="2000" viewBox="0 0 1440 2000" fill="none" xmlns="http://www.w3.org/2000/svg">
<g opacity="0.5">
<path d="M0 0H1440V2000H0V0Z" fill="#FFF066"/>
<path d="M165.652 211.604C165.956 211.588 166.164 211.52 166.276 211.4C166.388 211.272 166.448 211.1 166.456 210.884C166.472 210.66 166.48 210.408 166.48 210.128V204.944C166.48 204.784 166.484 204.632 166.492 204.488C166.5 204.336 166.508 204.2 166.516 204.08C166.372 204.088 166.228 204.096 166.084 204.104C165.94 204.112 165.796 204.12 165.652 204.128V203.6L168.484 203.588C169.204 203.588 169.864 203.672 170.464 203.84C171.064 204.008 171.58 204.268 172.012 204.62C172.452 204.964 172.788 205.404 173.02 205.94C173.26 206.468 173.38 207.092 173.38 207.812C173.38 208.364 173.284 208.892 173.092 209.396C172.9 209.9 172.612 210.348 172.228 210.74C171.844 211.124 171.364 211.432 170.788 211.664C170.22 211.888 169.56 212 168.808 212H165.652V211.604ZM167.524 210.584C167.524 210.8 167.52 210.984 167.512 211.136C167.512 211.288 167.504 211.416 167.488 211.52C167.704 211.528 167.9 211.536 168.076 211.544C168.26 211.544 168.412 211.544 168.532 211.544C168.66 211.544 168.74 211.544 168.772 211.544C169.292 211.544 169.76 211.448 170.176 211.256C170.6 211.064 170.96 210.8 171.256 210.464C171.56 210.12 171.792 209.72 171.952 209.264C172.12 208.8 172.204 208.3 172.204 207.764C172.204 207.004 172.064 206.348 171.784 205.796C171.512 205.236 171.092 204.804 170.524 204.5C169.956 204.188 169.232 204.032 168.352 204.032C168.056 204.032 167.848 204.092 167.728 204.212C167.616 204.332 167.552 204.5 167.536 204.716C167.528 204.932 167.524 205.184 167.524 205.472V210.584ZM177.366 212.192C176.814 212.192 176.314 212.064 175.866 211.808C175.426 211.544 175.078 211.176 174.822 210.704C174.566 210.224 174.438 209.66 174.438 209.012C174.438 208.452 174.562 207.928 174.81 207.44C175.066 206.952 175.422 206.56 175.878 206.264C176.334 205.96 176.862 205.808 177.462 205.808C177.798 205.808 178.11 205.864 178.398 205.976C178.694 206.08 178.954 206.244 179.178 206.468C179.402 206.684 179.578 206.96 179.706 207.296C179.834 207.624 179.898 208.012 179.898 208.46L175.674 208.532C175.674 209.14 175.738 209.676 175.866 210.14C176.002 210.596 176.218 210.952 176.514 211.208C176.81 211.456 177.19 211.58 177.654 211.58C177.902 211.58 178.154 211.536 178.41 211.448C178.674 211.36 178.918 211.24 179.142 211.088C179.366 210.936 179.546 210.768 179.682 210.584L179.97 210.824C179.754 211.16 179.494 211.428 179.19 211.628C178.886 211.828 178.574 211.972 178.254 212.06C177.934 212.148 177.638 212.192 177.366 212.192ZM175.71 208.028H178.77C178.77 207.74 178.726 207.464 178.638 207.2C178.558 206.928 178.422 206.708 178.23 206.54C178.038 206.364 177.786 206.276 177.474 206.276C177.01 206.276 176.622 206.416 176.31 206.696C176.006 206.968 175.806 207.412 175.71 208.028ZM180.965 212V211.64C181.214 211.64 181.386 211.58 181.482 211.46C181.577 211.332 181.633 211.16 181.65 210.944C181.666 210.72 181.674 210.464 181.674 210.176V207.44C181.674 207.312 181.674 207.184 181.674 207.056C181.682 206.928 181.697 206.796 181.721 206.66C181.577 206.668 181.434 206.676 181.29 206.684C181.154 206.692 181.014 206.7 180.87 206.708V206.204C181.222 206.204 181.486 206.188 181.661 206.156C181.846 206.124 181.982 206.084 182.07 206.036C182.158 205.988 182.23 205.936 182.286 205.88H182.633C182.65 205.96 182.658 206.052 182.658 206.156C182.665 206.26 182.674 206.38 182.682 206.516C182.922 206.308 183.198 206.14 183.51 206.012C183.822 205.876 184.133 205.808 184.445 205.808C184.845 205.808 185.182 205.88 185.454 206.024C185.726 206.168 185.938 206.364 186.089 206.612C186.361 206.388 186.673 206.2 187.025 206.048C187.385 205.888 187.738 205.808 188.081 205.808C188.777 205.808 189.29 206.02 189.618 206.444C189.946 206.86 190.102 207.544 190.085 208.496L190.074 210.728C190.074 210.888 190.069 211.032 190.061 211.16C190.061 211.28 190.049 211.408 190.025 211.544C190.154 211.536 190.278 211.532 190.398 211.532C190.526 211.524 190.653 211.516 190.781 211.508V212H188.333V211.64C188.581 211.64 188.754 211.58 188.85 211.46C188.945 211.332 189.001 211.16 189.018 210.944C189.034 210.72 189.042 210.464 189.042 210.176V208.496C189.042 207.808 188.93 207.292 188.706 206.948C188.49 206.604 188.146 206.436 187.674 206.444C187.426 206.444 187.178 206.5 186.93 206.612C186.682 206.724 186.465 206.864 186.281 207.032C186.321 207.16 186.349 207.3 186.365 207.452C186.389 207.596 186.402 207.748 186.402 207.908C186.394 208.372 186.389 208.84 186.389 209.312C186.389 209.784 186.385 210.256 186.378 210.728C186.378 210.888 186.373 211.032 186.365 211.16C186.365 211.28 186.354 211.408 186.329 211.544C186.458 211.536 186.582 211.532 186.702 211.532C186.83 211.524 186.957 211.516 187.085 211.508V212H184.637V211.64C184.885 211.64 185.053 211.58 185.141 211.46C185.237 211.332 185.293 211.16 185.309 210.944C185.333 210.72 185.346 210.464 185.346 210.176L185.357 208.496C185.365 207.808 185.265 207.288 185.057 206.936C184.85 206.584 184.51 206.412 184.038 206.42C183.79 206.42 183.546 206.476 183.305 206.588C183.065 206.692 182.861 206.828 182.693 206.996C182.693 207.092 182.693 207.196 182.693 207.308C182.701 207.412 182.706 207.524 182.706 207.644V210.728C182.706 210.888 182.701 211.032 182.693 211.16C182.693 211.28 182.682 211.408 182.658 211.544C182.786 211.536 182.91 211.532 183.029 211.532C183.158 211.524 183.285 211.516 183.413 211.508V212H180.965ZM194.664 212.192C194.104 212.192 193.596 212.064 193.14 211.808C192.684 211.544 192.32 211.184 192.048 210.728C191.784 210.264 191.652 209.736 191.652 209.144C191.652 208.512 191.784 207.944 192.048 207.44C192.312 206.936 192.672 206.54 193.128 206.252C193.584 205.956 194.096 205.808 194.664 205.808C195.224 205.808 195.732 205.944 196.188 206.216C196.644 206.48 197.008 206.84 197.28 207.296C197.552 207.752 197.688 208.272 197.688 208.856C197.688 209.472 197.552 210.036 197.28 210.548C197.016 211.052 196.656 211.452 196.2 211.748C195.744 212.044 195.232 212.192 194.664 212.192ZM194.76 211.712C195.184 211.712 195.52 211.592 195.768 211.352C196.016 211.112 196.192 210.8 196.296 210.416C196.408 210.032 196.464 209.628 196.464 209.204C196.464 208.844 196.428 208.492 196.356 208.148C196.292 207.796 196.188 207.48 196.044 207.2C195.9 206.912 195.712 206.684 195.48 206.516C195.256 206.348 194.984 206.264 194.664 206.264C194.248 206.264 193.908 206.384 193.644 206.624C193.38 206.864 193.184 207.176 193.056 207.56C192.936 207.944 192.876 208.356 192.876 208.796C192.876 209.292 192.944 209.764 193.08 210.212C193.216 210.652 193.424 211.012 193.704 211.292C193.984 211.572 194.336 211.712 194.76 211.712ZM205.196 212.12L202.472 205.736C202.296 205.328 202.172 205 202.1 204.752C202.028 204.496 201.98 204.28 201.956 204.104C201.844 204.112 201.732 204.116 201.62 204.116C201.508 204.116 201.396 204.12 201.284 204.128V203.6H204.068L204.056 204.008C203.656 204.032 203.416 204.156 203.336 204.38C203.256 204.596 203.296 204.904 203.456 205.304C203.648 205.776 203.832 206.232 204.008 206.672C204.184 207.112 204.38 207.588 204.596 208.1C204.788 208.548 204.972 208.98 205.148 209.396C205.332 209.804 205.472 210.144 205.568 210.416H205.592C205.68 210.136 205.768 209.868 205.856 209.612C205.952 209.356 206.064 209.052 206.192 208.7C206.432 208.028 206.632 207.46 206.792 206.996C206.96 206.532 207.104 206.136 207.224 205.808C207.344 205.48 207.444 205.2 207.524 204.968C207.596 204.76 207.66 204.584 207.716 204.44C207.772 204.296 207.824 204.176 207.872 204.08C207.72 204.088 207.568 204.096 207.416 204.104C207.264 204.112 207.108 204.12 206.948 204.128V203.6H209.384V203.996C209.032 204.012 208.76 204.104 208.568 204.272C208.384 204.44 208.216 204.74 208.064 205.172C208.048 205.212 208.028 205.268 208.004 205.34C207.98 205.404 207.94 205.512 207.884 205.664C207.828 205.816 207.748 206.04 207.644 206.336C207.54 206.624 207.396 207.016 207.212 207.512C207.036 208.008 206.808 208.632 206.528 209.384C206.256 210.136 205.924 211.048 205.532 212.12H205.196ZM209.524 211.64C209.772 211.64 209.944 211.58 210.04 211.46C210.136 211.332 210.192 211.16 210.208 210.944C210.224 210.72 210.232 210.464 210.232 210.176V207.44C210.232 207.312 210.236 207.192 210.244 207.08C210.252 206.96 210.264 206.82 210.28 206.66C210.136 206.668 209.992 206.676 209.848 206.684C209.712 206.692 209.572 206.7 209.428 206.708V206.204C209.78 206.204 210.052 206.188 210.244 206.156C210.436 206.124 210.58 206.084 210.676 206.036C210.78 205.988 210.86 205.936 210.916 205.88H211.264V210.728C211.264 210.888 211.26 211.032 211.252 211.16C211.252 211.28 211.24 211.408 211.216 211.544C211.344 211.536 211.468 211.532 211.588 211.532C211.716 211.524 211.844 211.516 211.972 211.508V212H209.524V211.64ZM210.688 204.692C210.52 204.692 210.372 204.624 210.244 204.488C210.116 204.352 210.052 204.184 210.052 203.984C210.052 203.784 210.116 203.616 210.244 203.48C210.38 203.336 210.532 203.264 210.7 203.264C210.884 203.264 211.036 203.336 211.156 203.48C211.284 203.616 211.348 203.784 211.348 203.984C211.348 204.184 211.28 204.352 211.144 204.488C211.016 204.624 210.864 204.692 210.688 204.692ZM215.467 212.192C214.979 212.192 214.539 212.072 214.147 211.832C213.755 211.584 213.443 211.232 213.211 210.776C212.987 210.32 212.875 209.784 212.875 209.168C212.875 208.512 213.007 207.932 213.271 207.428C213.535 206.924 213.899 206.528 214.363 206.24C214.835 205.952 215.367 205.808 215.959 205.808C216.223 205.808 216.483 205.844 216.739 205.916C217.003 205.98 217.211 206.056 217.363 206.144V204.5C217.363 204.372 217.363 204.252 217.363 204.14C217.371 204.02 217.383 203.88 217.399 203.72C217.255 203.728 217.111 203.736 216.967 203.744C216.831 203.752 216.691 203.76 216.547 203.768V203.264C216.899 203.264 217.171 203.248 217.363 203.216C217.555 203.184 217.699 203.144 217.795 203.096C217.899 203.048 217.979 202.996 218.035 202.94H218.383V210.728C218.383 210.856 218.379 210.984 218.371 211.112C218.363 211.24 218.351 211.384 218.335 211.544C218.479 211.536 218.619 211.528 218.755 211.52C218.899 211.512 219.043 211.504 219.187 211.496V212H217.471C217.447 211.88 217.427 211.772 217.411 211.676C217.403 211.572 217.395 211.472 217.387 211.376C217.163 211.624 216.887 211.824 216.559 211.976C216.231 212.12 215.867 212.192 215.467 212.192ZM215.899 211.604C216.163 211.604 216.427 211.528 216.691 211.376C216.963 211.224 217.187 211.036 217.363 210.812C217.355 210.716 217.351 210.616 217.351 210.512C217.351 210.4 217.351 210.28 217.351 210.152L217.363 206.696C217.171 206.552 216.959 206.448 216.727 206.384C216.503 206.312 216.271 206.276 216.031 206.276C215.631 206.276 215.283 206.392 214.987 206.624C214.691 206.856 214.467 207.18 214.315 207.596C214.163 208.012 214.095 208.5 214.111 209.06C214.127 209.548 214.203 209.984 214.339 210.368C214.483 210.752 214.683 211.056 214.939 211.28C215.203 211.496 215.523 211.604 215.899 211.604ZM222.975 212.192C222.423 212.192 221.923 212.064 221.475 211.808C221.035 211.544 220.687 211.176 220.431 210.704C220.175 210.224 220.047 209.66 220.047 209.012C220.047 208.452 220.171 207.928 220.419 207.44C220.675 206.952 221.031 206.56 221.487 206.264C221.943 205.96 222.471 205.808 223.071 205.808C223.407 205.808 223.719 205.864 224.007 205.976C224.303 206.08 224.563 206.244 224.787 206.468C225.011 206.684 225.187 206.96 225.315 207.296C225.443 207.624 225.507 208.012 225.507 208.46L221.283 208.532C221.283 209.14 221.347 209.676 221.475 210.14C221.611 210.596 221.827 210.952 222.123 211.208C222.419 211.456 222.799 211.58 223.263 211.58C223.511 211.58 223.763 211.536 224.019 211.448C224.283 211.36 224.527 211.24 224.751 211.088C224.975 210.936 225.155 210.768 225.291 210.584L225.579 210.824C225.363 211.16 225.103 211.428 224.799 211.628C224.495 211.828 224.183 211.972 223.863 212.06C223.543 212.148 223.247 212.192 222.975 212.192ZM221.319 208.028H224.379C224.379 207.74 224.335 207.464 224.247 207.2C224.167 206.928 224.031 206.708 223.839 206.54C223.647 206.364 223.395 206.276 223.083 206.276C222.619 206.276 222.231 206.416 221.919 206.696C221.615 206.968 221.415 207.412 221.319 208.028ZM229.492 212.192C228.932 212.192 228.424 212.064 227.968 211.808C227.512 211.544 227.148 211.184 226.876 210.728C226.612 210.264 226.48 209.736 226.48 209.144C226.48 208.512 226.612 207.944 226.876 207.44C227.14 206.936 227.5 206.54 227.956 206.252C228.412 205.956 228.924 205.808 229.492 205.808C230.052 205.808 230.56 205.944 231.016 206.216C231.472 206.48 231.836 206.84 232.108 207.296C232.38 207.752 232.516 208.272 232.516 208.856C232.516 209.472 232.38 210.036 232.108 210.548C231.844 211.052 231.484 211.452 231.028 211.748C230.572 212.044 230.06 212.192 229.492 212.192ZM229.588 211.712C230.012 211.712 230.348 211.592 230.596 211.352C230.844 211.112 231.02 210.8 231.124 210.416C231.236 210.032 231.292 209.628 231.292 209.204C231.292 208.844 231.256 208.492 231.184 208.148C231.12 207.796 231.016 207.48 230.872 207.2C230.728 206.912 230.54 206.684 230.308 206.516C230.084 206.348 229.812 206.264 229.492 206.264C229.076 206.264 228.736 206.384 228.472 206.624C228.208 206.864 228.012 207.176 227.884 207.56C227.764 207.944 227.704 208.356 227.704 208.796C227.704 209.292 227.772 209.764 227.908 210.212C228.044 210.652 228.252 211.012 228.532 211.292C228.812 211.572 229.164 211.712 229.588 211.712Z" fill="#FFF066"/>
</g>
</svg>
