<svg width="584" height="496" viewBox="0 0 584 496" fill="none" xmlns="http://www.w3.org/2000/svg">
<g filter="url(#filter0_dg_16_500)">
<ellipse cx="292" cy="218.5" rx="288" ry="214.5" fill="white" fill-opacity="0.65"/>
<path d="M4 477C4 477 69.4826 482.411 106.273 460.181C143.064 437.95 172.964 405.557 172.964 405.557L132.966 390.397C132.966 390.397 112.024 412.102 88.9508 437.357C65.8778 462.612 4 477 4 477Z" fill="white" fill-opacity="0.65"/>
<path d="M292 16C366.394 16 433.558 38.925 482.015 75.7559C530.468 112.584 560 163.098 560 218.5C560 273.902 530.468 324.416 482.015 361.244C433.558 398.075 366.394 421 292 421C217.606 421 150.442 398.075 101.985 361.244C53.5321 324.416 24 273.902 24 218.5C24 163.098 53.5321 112.584 101.985 75.7559C150.442 38.925 217.606 16 292 16Z" stroke="#FFFCB0" stroke-opacity="0.7" stroke-width="10"/>
</g>
<defs>
<filter id="filter0_dg_16_500" x="0" y="0" width="584" height="485.58" filterUnits="userSpaceOnUse" color-interpolation-filters="sRGB">
<feFlood flood-opacity="0" result="BackgroundImageFix"/>
<feColorMatrix in="SourceAlpha" type="matrix" values="0 0 0 0 0 0 0 0 0 0 0 0 0 0 0 0 0 0 127 0" result="hardAlpha"/>
<feOffset dy="4"/>
<feGaussianBlur stdDeviation="2"/>
<feComposite in2="hardAlpha" operator="out"/>
<feColorMatrix type="matrix" values="0 0 0 0 0 0 0 0 0 0 0 0 0 0 0 0 0 0 0.25 0"/>
<feBlend mode="normal" in2="BackgroundImageFix" result="effect1_dropShadow_16_500"/>
<feBlend mode="normal" in="SourceGraphic" in2="effect1_dropShadow_16_500" result="shape"/>
<feTurbulence type="fractalNoise" baseFrequency="0.25 0.25" numOctaves="3" seed="5911" />
<feDisplacementMap in="shape" scale="8" xChannelSelector="R" yChannelSelector="G" result="displacedImage" width="100%" height="100%" />
<feMerge result="effect2_texture_16_500">
<feMergeNode in="displacedImage"/>
</feMerge>
</filter>
</defs>
</svg>
