<svg width="584" height="492" viewBox="0 0 584 492" fill="none" xmlns="http://www.w3.org/2000/svg">
<g filter="url(#filter0_d_16_500)">
<ellipse cx="292" cy="214.5" rx="288" ry="214.5" fill="white" fill-opacity="0.65"/>
<path d="M4 473C4 473 69.4826 478.411 106.273 456.181C143.064 433.95 172.964 401.557 172.964 401.557L132.966 386.397C132.966 386.397 112.024 408.102 88.9508 433.357C65.8778 458.612 4 473 4 473Z" fill="white" fill-opacity="0.65"/>
<path d="M292 12C366.394 12 433.558 34.925 482.015 71.7559C530.468 108.584 560 159.098 560 214.5C560 269.902 530.468 320.416 482.015 357.244C433.558 394.075 366.394 417 292 417C217.606 417 150.442 394.075 101.985 357.244C53.5321 320.416 24 269.902 24 214.5C24 159.098 53.5321 108.584 101.985 71.7559C150.442 34.925 217.606 12 292 12Z" stroke="#FFFCB0" stroke-opacity="0.7" stroke-width="10"/>
</g>
<defs>
<filter id="filter0_d_16_500" x="0" y="0" width="584" height="481.58" filterUnits="userSpaceOnUse" color-interpolation-filters="sRGB">
<feFlood flood-opacity="0" result="BackgroundImageFix"/>
<feColorMatrix in="SourceAlpha" type="matrix" values="0 0 0 0 0 0 0 0 0 0 0 0 0 0 0 0 0 0 127 0" result="hardAlpha"/>
<feOffset dy="4"/>
<feGaussianBlur stdDeviation="2"/>
<feComposite in2="hardAlpha" operator="out"/>
<feColorMatrix type="matrix" values="0 0 0 0 0 0 0 0 0 0 0 0 0 0 0 0 0 0 0.25 0"/>
<feBlend mode="normal" in2="BackgroundImageFix" result="effect1_dropShadow_16_500"/>
<feBlend mode="normal" in="SourceGraphic" in2="effect1_dropShadow_16_500" result="shape"/>
</filter>
</defs>
</svg>
