<svg width="295" height="323" viewBox="0 0 295 323" fill="none" xmlns="http://www.w3.org/2000/svg">
<path d="M73.5 15H167L140 246L117.5 325H0L23.5 184L73.5 15Z" fill="#699EBC"/>
<path d="M234.5 0.5L128 16.4637L135.5 169.5L150.5 269.5V335.464L295 326.464L288 194L234.5 0.5Z" fill="#699EBC"/>
<path d="M137.15 84.4384L124.538 144.942L91.9838 155.954L69.2306 133.548L81.8697 72.9151L137.15 84.4384Z" stroke="#4A7F9E" stroke-opacity="0.5" stroke-width="10"/>
<path d="M172.887 84.837L186.888 152.002L223.172 164.277L248.552 139.284L234.524 71.9886L172.887 84.837Z" stroke="#4A7F9E" stroke-opacity="0.5" stroke-width="10"/>
<path d="M66.9801 43.5005L152.5 50.0001L242.98 36.5005" stroke="#4A7F9E" stroke-opacity="0.5" stroke-width="5"/>
<line x1="145.505" y1="211.843" x2="155.505" y2="52.8431" stroke="#4A7F9E" stroke-opacity="0.5" stroke-width="5"/>
</svg>
